<svg width="20" height="14" viewBox="0 0 20 14" fill="none" xmlns="http://www.w3.org/2000/svg">
<path d="M2.16013 2.50589C2.85446 2.50589 3.40817 1.95218 3.40817 1.25784C3.40817 0.572296 2.85446 0.00979614 2.16013 0.00979614C1.47458 0.00979614 0.912079 0.572296 0.912079 1.25784C0.912079 1.95218 1.47458 2.50589 2.16013 2.50589ZM6.29099 2.10159H18.2265C18.7011 2.10159 19.0791 1.73245 19.0791 1.25784C19.0791 0.783234 18.7099 0.414093 18.2265 0.414093H6.29099C5.82516 0.414093 5.44724 0.783234 5.44724 1.25784C5.44724 1.73245 5.81638 2.10159 6.29099 2.10159ZM2.16013 7.91116C2.85446 7.91116 3.40817 7.35745 3.40817 6.66312C3.40817 5.97757 2.85446 5.41507 2.16013 5.41507C1.47458 5.41507 0.912079 5.97757 0.912079 6.66312C0.912079 7.35745 1.47458 7.91116 2.16013 7.91116ZM6.29099 7.50687H18.2265C18.7011 7.50687 19.0791 7.13773 19.0791 6.66312C19.0791 6.18851 18.7099 5.81937 18.2265 5.81937H6.29099C5.82516 5.81937 5.44724 6.18851 5.44724 6.66312C5.44724 7.13773 5.81638 7.50687 6.29099 7.50687ZM2.16013 13.3164C2.85446 13.3164 3.40817 12.7627 3.40817 12.0684C3.40817 11.3828 2.85446 10.8203 2.16013 10.8203C1.47458 10.8203 0.912079 11.3828 0.912079 12.0684C0.912079 12.7627 1.47458 13.3164 2.16013 13.3164ZM6.29099 12.9121H18.2265C18.7011 12.9121 19.0791 12.543 19.0791 12.0684C19.0791 11.5938 18.7099 11.2246 18.2265 11.2246H6.29099C5.82516 11.2246 5.44724 11.5938 5.44724 12.0684C5.44724 12.543 5.81638 12.9121 6.29099 12.9121Z" fill="#FEAC0D"/>
</svg>
