<svg width="24" height="18" viewBox="0 0 24 18" fill="none" xmlns="http://www.w3.org/2000/svg">
<path d="M1.92018 3.22181C2.8129 3.22181 3.52482 2.50989 3.52482 1.61717C3.52482 0.735757 2.8129 0.0125427 1.92018 0.0125427C1.03877 0.0125427 0.315552 0.735757 0.315552 1.61717C0.315552 2.50989 1.03877 3.22181 1.92018 3.22181ZM7.23129 2.702H22.577C23.1872 2.702 23.6731 2.22739 23.6731 1.61717C23.6731 1.00696 23.1985 0.532353 22.577 0.532353H7.23129C6.63238 0.532353 6.14647 1.00696 6.14647 1.61717C6.14647 2.22739 6.62108 2.702 7.23129 2.702ZM1.92018 10.1714C2.8129 10.1714 3.52482 9.45953 3.52482 8.56681C3.52482 7.68539 2.8129 6.96218 1.92018 6.96218C1.03877 6.96218 0.315552 7.68539 0.315552 8.56681C0.315552 9.45953 1.03877 10.1714 1.92018 10.1714ZM7.23129 9.65163H22.577C23.1872 9.65163 23.6731 9.17702 23.6731 8.56681C23.6731 7.9566 23.1985 7.48199 22.577 7.48199H7.23129C6.63238 7.48199 6.14647 7.9566 6.14647 8.56681C6.14647 9.17702 6.62108 9.65163 7.23129 9.65163ZM1.92018 17.1211C2.8129 17.1211 3.52482 16.4092 3.52482 15.5164C3.52482 14.635 2.8129 13.9118 1.92018 13.9118C1.03877 13.9118 0.315552 14.635 0.315552 15.5164C0.315552 16.4092 1.03877 17.1211 1.92018 17.1211ZM7.23129 16.6013H22.577C23.1872 16.6013 23.6731 16.1267 23.6731 15.5164C23.6731 14.9062 23.1985 14.4316 22.577 14.4316H7.23129C6.63238 14.4316 6.14647 14.9062 6.14647 15.5164C6.14647 16.1267 6.62108 16.6013 7.23129 16.6013Z" fill="white"/>
</svg>
