<svg width="17" height="16" viewBox="0 0 17 16" fill="none" xmlns="http://www.w3.org/2000/svg">
<path d="M1.90947 9.17969H7.46228V14.7325C7.46228 15.2969 7.92653 15.7702 8.50001 15.7702C9.0735 15.7702 9.53775 15.2969 9.53775 14.7325V9.17969H15.0906C15.6549 9.17969 16.1283 8.71544 16.1283 8.14195C16.1283 7.56846 15.6549 7.10421 15.0906 7.10421H9.53775V1.55141C9.53775 0.987026 9.0735 0.513672 8.50001 0.513672C7.92653 0.513672 7.46228 0.987026 7.46228 1.55141V7.10421H1.90947C1.34509 7.10421 0.871735 7.56846 0.871735 8.14195C0.871735 8.71544 1.34509 9.17969 1.90947 9.17969Z" fill="white"/>
</svg>
